<mxfile host="app.diagrams.net" modified="2024-03-25T04:20:57.270Z" agent="Mozilla/5.0 (Windows NT 10.0; Win64; x64) AppleWebKit/537.36 (KHTML, like Gecko) Chrome/122.0.0.0 Safari/537.36 Edg/122.0.0.0" etag="SbacOUjVYWcJc6snHJvL" version="24.0.7" type="device">
  <diagram name="Page-1" id="3e2ysZya8nBOgXwDxlrd">
    <mxGraphModel dx="1130" dy="643" grid="1" gridSize="10" guides="1" tooltips="1" connect="1" arrows="1" fold="1" page="1" pageScale="1" pageWidth="850" pageHeight="1100" math="0" shadow="0">
      <root>
        <mxCell id="0" />
        <mxCell id="1" parent="0" />
        <mxCell id="ZdjQBMum9fPJpRXghZMo-1" value="Khách hàng" style="rounded=0;whiteSpace=wrap;html=1;" vertex="1" parent="1">
          <mxGeometry x="50" y="470" width="90" height="40" as="geometry" />
        </mxCell>
        <mxCell id="ZdjQBMum9fPJpRXghZMo-2" value="Người bán hàng" style="rounded=0;whiteSpace=wrap;html=1;" vertex="1" parent="1">
          <mxGeometry x="610" y="470" width="100" height="40" as="geometry" />
        </mxCell>
        <mxCell id="ZdjQBMum9fPJpRXghZMo-3" value="Quản lí hóa đơn" style="ellipse;whiteSpace=wrap;html=1;aspect=fixed;" vertex="1" parent="1">
          <mxGeometry x="360" y="520" width="90" height="90" as="geometry" />
        </mxCell>
        <mxCell id="ZdjQBMum9fPJpRXghZMo-4" value="Hóa đơn" style="html=1;dashed=0;whiteSpace=wrap;shape=partialRectangle;right=0;left=0;" vertex="1" parent="1">
          <mxGeometry x="190" y="480" width="100" height="30" as="geometry" />
        </mxCell>
        <mxCell id="ZdjQBMum9fPJpRXghZMo-5" value="" style="endArrow=classic;startArrow=classic;html=1;rounded=0;entryX=0;entryY=0.5;entryDx=0;entryDy=0;exitX=1;exitY=0.5;exitDx=0;exitDy=0;" edge="1" parent="1" source="ZdjQBMum9fPJpRXghZMo-4" target="ZdjQBMum9fPJpRXghZMo-3">
          <mxGeometry width="50" height="50" relative="1" as="geometry">
            <mxPoint x="410" y="330" as="sourcePoint" />
            <mxPoint x="460" y="280" as="targetPoint" />
          </mxGeometry>
        </mxCell>
        <mxCell id="ZdjQBMum9fPJpRXghZMo-13" value="Thanh toán" style="ellipse;whiteSpace=wrap;html=1;aspect=fixed;" vertex="1" parent="1">
          <mxGeometry x="305" y="320" width="110" height="110" as="geometry" />
        </mxCell>
        <mxCell id="ZdjQBMum9fPJpRXghZMo-14" value="Hình thức thanh toán" style="html=1;dashed=0;whiteSpace=wrap;shape=partialRectangle;right=0;left=0;" vertex="1" parent="1">
          <mxGeometry x="305" y="200" width="110" height="50" as="geometry" />
        </mxCell>
        <mxCell id="ZdjQBMum9fPJpRXghZMo-15" value="" style="endArrow=classic;html=1;rounded=0;exitX=1;exitY=0;exitDx=0;exitDy=0;entryX=0;entryY=0;entryDx=0;entryDy=0;" edge="1" parent="1" source="ZdjQBMum9fPJpRXghZMo-1" target="ZdjQBMum9fPJpRXghZMo-13">
          <mxGeometry width="50" height="50" relative="1" as="geometry">
            <mxPoint x="410" y="430" as="sourcePoint" />
            <mxPoint x="460" y="380" as="targetPoint" />
          </mxGeometry>
        </mxCell>
        <mxCell id="ZdjQBMum9fPJpRXghZMo-16" value="Yêu cầu thanh toán" style="edgeLabel;html=1;align=center;verticalAlign=middle;resizable=0;points=[];" vertex="1" connectable="0" parent="ZdjQBMum9fPJpRXghZMo-15">
          <mxGeometry x="-0.3243" y="4" relative="1" as="geometry">
            <mxPoint x="21" as="offset" />
          </mxGeometry>
        </mxCell>
        <mxCell id="ZdjQBMum9fPJpRXghZMo-17" value="" style="endArrow=classic;startArrow=classic;html=1;rounded=0;exitX=0.5;exitY=0;exitDx=0;exitDy=0;entryX=0.5;entryY=1;entryDx=0;entryDy=0;" edge="1" parent="1" source="ZdjQBMum9fPJpRXghZMo-13" target="ZdjQBMum9fPJpRXghZMo-14">
          <mxGeometry width="50" height="50" relative="1" as="geometry">
            <mxPoint x="410" y="430" as="sourcePoint" />
            <mxPoint x="460" y="380" as="targetPoint" />
          </mxGeometry>
        </mxCell>
        <mxCell id="ZdjQBMum9fPJpRXghZMo-18" value="" style="endArrow=classic;startArrow=classic;html=1;rounded=0;exitX=0.5;exitY=0;exitDx=0;exitDy=0;entryX=0.5;entryY=1;entryDx=0;entryDy=0;" edge="1" parent="1" source="ZdjQBMum9fPJpRXghZMo-4" target="ZdjQBMum9fPJpRXghZMo-13">
          <mxGeometry width="50" height="50" relative="1" as="geometry">
            <mxPoint x="410" y="530" as="sourcePoint" />
            <mxPoint x="460" y="480" as="targetPoint" />
          </mxGeometry>
        </mxCell>
        <mxCell id="ZdjQBMum9fPJpRXghZMo-19" value="" style="endArrow=classic;startArrow=classic;html=1;rounded=0;entryX=0.5;entryY=1;entryDx=0;entryDy=0;exitX=0.5;exitY=0;exitDx=0;exitDy=0;" edge="1" parent="1" source="ZdjQBMum9fPJpRXghZMo-20" target="ZdjQBMum9fPJpRXghZMo-4">
          <mxGeometry width="50" height="50" relative="1" as="geometry">
            <mxPoint x="360" y="630" as="sourcePoint" />
            <mxPoint x="460" y="580" as="targetPoint" />
          </mxGeometry>
        </mxCell>
        <mxCell id="ZdjQBMum9fPJpRXghZMo-20" value="Vận chuyển" style="ellipse;whiteSpace=wrap;html=1;aspect=fixed;" vertex="1" parent="1">
          <mxGeometry x="315" y="700" width="90" height="90" as="geometry" />
        </mxCell>
        <mxCell id="ZdjQBMum9fPJpRXghZMo-22" value="" style="endArrow=classic;html=1;rounded=0;exitX=0;exitY=0.5;exitDx=0;exitDy=0;entryX=1;entryY=1;entryDx=0;entryDy=0;" edge="1" parent="1" source="ZdjQBMum9fPJpRXghZMo-20" target="ZdjQBMum9fPJpRXghZMo-1">
          <mxGeometry width="50" height="50" relative="1" as="geometry">
            <mxPoint x="410" y="630" as="sourcePoint" />
            <mxPoint x="460" y="580" as="targetPoint" />
          </mxGeometry>
        </mxCell>
        <mxCell id="ZdjQBMum9fPJpRXghZMo-24" value="" style="endArrow=classic;html=1;rounded=0;exitX=0;exitY=1;exitDx=0;exitDy=0;entryX=1;entryY=0.5;entryDx=0;entryDy=0;" edge="1" parent="1" source="ZdjQBMum9fPJpRXghZMo-2" target="ZdjQBMum9fPJpRXghZMo-20">
          <mxGeometry width="50" height="50" relative="1" as="geometry">
            <mxPoint x="410" y="630" as="sourcePoint" />
            <mxPoint x="460" y="580" as="targetPoint" />
          </mxGeometry>
        </mxCell>
        <mxCell id="ZdjQBMum9fPJpRXghZMo-25" value="" style="endArrow=classic;html=1;rounded=0;exitX=1;exitY=0.5;exitDx=0;exitDy=0;entryX=0;entryY=0;entryDx=0;entryDy=0;" edge="1" parent="1" source="ZdjQBMum9fPJpRXghZMo-13" target="ZdjQBMum9fPJpRXghZMo-2">
          <mxGeometry width="50" height="50" relative="1" as="geometry">
            <mxPoint x="410" y="530" as="sourcePoint" />
            <mxPoint x="460" y="480" as="targetPoint" />
          </mxGeometry>
        </mxCell>
        <mxCell id="ZdjQBMum9fPJpRXghZMo-26" value="Xác nhận than toán" style="edgeLabel;html=1;align=center;verticalAlign=middle;resizable=0;points=[];" vertex="1" connectable="0" parent="ZdjQBMum9fPJpRXghZMo-25">
          <mxGeometry x="-0.1542" y="-5" relative="1" as="geometry">
            <mxPoint x="14" as="offset" />
          </mxGeometry>
        </mxCell>
        <mxCell id="ZdjQBMum9fPJpRXghZMo-27" value="" style="endArrow=classic;html=1;rounded=0;exitX=0;exitY=0.25;exitDx=0;exitDy=0;entryX=0.714;entryY=0.03;entryDx=0;entryDy=0;entryPerimeter=0;" edge="1" parent="1" source="ZdjQBMum9fPJpRXghZMo-2" target="ZdjQBMum9fPJpRXghZMo-3">
          <mxGeometry width="50" height="50" relative="1" as="geometry">
            <mxPoint x="410" y="530" as="sourcePoint" />
            <mxPoint x="460" y="480" as="targetPoint" />
          </mxGeometry>
        </mxCell>
        <mxCell id="ZdjQBMum9fPJpRXghZMo-28" value="Yêu cầu in hóa đơn" style="edgeLabel;html=1;align=center;verticalAlign=middle;resizable=0;points=[];" vertex="1" connectable="0" parent="ZdjQBMum9fPJpRXghZMo-27">
          <mxGeometry x="0.18" relative="1" as="geometry">
            <mxPoint x="9" y="-10" as="offset" />
          </mxGeometry>
        </mxCell>
        <mxCell id="ZdjQBMum9fPJpRXghZMo-30" value="" style="endArrow=classic;html=1;rounded=0;exitX=0.99;exitY=0.296;exitDx=0;exitDy=0;exitPerimeter=0;entryX=0;entryY=0.75;entryDx=0;entryDy=0;" edge="1" parent="1" source="ZdjQBMum9fPJpRXghZMo-3" target="ZdjQBMum9fPJpRXghZMo-2">
          <mxGeometry width="50" height="50" relative="1" as="geometry">
            <mxPoint x="410" y="530" as="sourcePoint" />
            <mxPoint x="460" y="480" as="targetPoint" />
          </mxGeometry>
        </mxCell>
        <mxCell id="ZdjQBMum9fPJpRXghZMo-31" value="Xuất hóa đơn" style="edgeLabel;html=1;align=center;verticalAlign=middle;resizable=0;points=[];" vertex="1" connectable="0" parent="ZdjQBMum9fPJpRXghZMo-30">
          <mxGeometry x="-0.3212" y="-3" relative="1" as="geometry">
            <mxPoint x="15" y="-4" as="offset" />
          </mxGeometry>
        </mxCell>
      </root>
    </mxGraphModel>
  </diagram>
</mxfile>
